# Blender v2.90.1 OBJ File: 'GrassPack.blend'
# www.blender.org
mtllib Grass_1.mtl
o GrassBunch7_Circle.053
v 1.805544 -0.002243 -1.629311
v 1.730316 0.000826 -1.497037
v 1.880772 0.000826 -1.497037
v 1.805544 0.294473 -1.590888
v 1.730356 0.239563 -1.470236
v 1.880733 0.239563 -1.470236
v 1.805544 0.588659 -1.330046
v 1.805544 0.516478 -1.481764
v 1.862162 0.479323 -1.388433
v 1.748926 0.479323 -1.388433
v 2.333994 -0.002243 -1.852268
v 2.231290 0.000826 -1.739986
v 2.377994 0.000826 -1.706599
v 2.325468 0.294473 -1.814804
v 2.225381 0.239563 -1.713845
v 2.372009 0.239563 -1.680475
v 2.267586 0.588659 -1.560465
v 2.301253 0.516478 -1.708400
v 2.335748 0.479323 -1.604833
v 2.225336 0.479323 -1.629961
v 2.347631 -0.002243 -1.309224
v 2.246308 0.000826 -1.195694
v 2.393410 0.000826 -1.164104
v 2.339564 0.294473 -1.271658
v 2.240719 0.239563 -1.169482
v 2.387744 0.239563 -1.137909
v 2.284797 0.588659 -1.016630
v 2.316652 0.516478 -1.164966
v 2.352412 0.479323 -1.061828
v 2.241700 0.479323 -1.085603
v 1.827389 -0.003637 -1.353083
v 1.745351 0.001506 -1.247982
v 1.874110 0.001506 -1.228208
v 1.819551 0.224521 -1.302042
v 1.737864 0.205569 -1.202341
v 1.867556 0.205569 -1.182424
v 1.774238 0.630237 -1.006978
v 1.803316 0.452587 -1.196328
v 1.837039 0.460813 -1.093876
v 1.740405 0.460813 -1.108716
v 1.999353 0.001607 -1.068030
v 2.080377 0.006914 -1.201514
v 1.943411 0.006914 -1.213815
v 2.002704 0.102128 -1.105343
v 2.084656 0.088798 -1.223368
v 1.943095 0.088798 -1.236082
v 2.006488 0.469018 -1.147476
v 2.001119 0.219891 -1.087693
v 1.950433 0.289765 -1.217409
v 2.074108 0.289765 -1.206301
v 2.102418 -0.002243 -1.906443
v 2.001751 0.000826 -1.792330
v 2.149033 0.000826 -1.761589
v 2.094568 0.294473 -1.868831
v 1.996314 0.239563 -1.766087
v 2.143519 0.239563 -1.735362
v 2.041273 0.588659 -1.613491
v 2.072272 0.516478 -1.762008
v 2.108626 0.479323 -1.659079
v 1.997779 0.479323 -1.682215
v 1.759166 -0.003637 -1.898806
v 1.730834 0.001506 -1.768522
v 1.855426 0.001506 -1.806554
v 1.774242 0.224521 -1.849416
v 1.743884 0.205569 -1.724151
v 1.869380 0.205569 -1.762458
v 1.861396 0.630237 -1.563899
v 1.805467 0.452587 -1.747122
v 1.880291 0.460813 -1.669436
v 1.786783 0.460813 -1.640893
v 2.317487 0.001607 -1.376376
v 2.398512 0.006914 -1.509860
v 2.261545 0.006914 -1.522161
v 2.320839 0.102128 -1.413689
v 2.402791 0.088798 -1.531714
v 2.261229 0.088798 -1.544428
v 2.324623 0.469018 -1.455822
v 2.319254 0.219891 -1.396039
v 2.268568 0.289765 -1.525755
v 2.392242 0.289765 -1.514647
v 2.050701 -0.003637 -1.603583
v 1.985567 0.001506 -1.487247
v 2.115835 0.001506 -1.487247
v 2.050701 0.224521 -1.551944
v 1.985095 0.205569 -1.440999
v 2.116308 0.205569 -1.440999
v 2.050701 0.630237 -1.253421
v 2.050701 0.452587 -1.444990
v 2.099585 0.460813 -1.348844
v 2.001818 0.460813 -1.348844
vn 0.8633 0.0611 -0.5009
vn 0.0000 -0.1116 0.9938
vn -0.8633 0.0611 -0.5009
vn 0.7928 0.5504 -0.2618
vn 0.0000 -0.4711 0.8821
vn -0.7928 0.5504 -0.2618
vn -0.8701 0.2178 -0.4422
vn 0.0000 -0.3229 0.9464
vn 0.8701 0.2178 -0.4422
vn 0.9530 0.0611 -0.2968
vn -0.2205 -0.1116 0.9690
vn -0.7307 0.0611 -0.6800
vn 0.8311 0.5504 -0.0794
vn -0.1957 -0.4711 0.8601
vn -0.7149 0.5504 -0.4312
vn -0.7502 0.2178 -0.6243
vn -0.2100 -0.3229 0.9228
vn 0.9465 0.2178 -0.2381
vn 0.9493 0.0611 -0.3085
vn -0.2087 -0.1116 0.9716
vn -0.7389 0.0611 -0.6710
vn 0.8301 0.5504 -0.0895
vn -0.1852 -0.4711 0.8624
vn -0.7202 0.5504 -0.4225
vn -0.7578 0.2178 -0.6150
vn -0.1987 -0.3229 0.9253
vn 0.9435 0.2178 -0.2497
vn 0.9289 0.1102 -0.3537
vn -0.1480 -0.2210 0.9640
vn -0.7799 0.1102 -0.6161
vn 0.8285 0.4662 -0.3102
vn -0.1323 -0.4907 0.8612
vn -0.6973 0.4662 -0.5445
vn -0.7782 0.2205 -0.5881
vn -0.1428 -0.3396 0.9297
vn 0.9188 0.2205 -0.3275
vn -0.9152 0.1388 0.3784
vn 0.0864 -0.2611 -0.9614
vn 0.8331 0.1388 0.5354
vn -0.9013 0.1194 0.4165
vn 0.0841 0.3392 -0.9369
vn 0.8126 0.1194 0.5704
vn 0.8393 -0.0272 0.5430
vn 0.0891 0.0889 -0.9920
vn -0.9226 -0.0272 0.3848
vn 0.9475 0.0611 -0.3140
vn -0.2030 -0.1116 0.9728
vn -0.7428 0.0611 -0.6667
vn 0.8296 0.5504 -0.0943
vn -0.1802 -0.4711 0.8635
vn -0.7226 0.5504 -0.4183
vn -0.7614 0.2178 -0.6106
vn -0.1934 -0.3229 0.9265
vn 0.9421 0.2178 -0.2551
vn 0.6835 0.1102 -0.7216
vn 0.2847 -0.2210 0.9328
vn -0.9700 0.1102 -0.2168
vn 0.6120 0.4662 -0.6388
vn 0.2544 -0.4907 0.8333
vn -0.8644 0.4662 -0.1881
vn -0.9562 0.2205 -0.1924
vn 0.2746 -0.3396 0.8996
vn 0.6858 0.2205 -0.6936
vn 0.8644 0.1102 -0.4906
vn 0.0000 -0.2210 0.9753
vn -0.8644 0.1102 -0.4906
vn 0.7719 0.4662 -0.4323
vn 0.0000 -0.4907 0.8713
vn -0.7719 0.4662 -0.4323
vn -0.8584 0.2205 -0.4632
vn 0.0000 -0.3396 0.9406
vn 0.8584 0.2205 -0.4632
usemtl grass
s off
f 1//1 4//1 6//1 3//1
f 3//2 6//2 5//2 2//2
f 2//3 5//3 4//3 1//3
f 9//4 8//4 7//4
f 10//5 9//5 7//5
f 8//6 10//6 7//6
f 4//7 5//7 10//7 8//7
f 5//8 6//8 9//8 10//8
f 6//9 4//9 8//9 9//9
f 11//10 14//10 16//10 13//10
f 13//11 16//11 15//11 12//11
f 12//12 15//12 14//12 11//12
f 19//13 18//13 17//13
f 20//14 19//14 17//14
f 18//15 20//15 17//15
f 14//16 15//16 20//16 18//16
f 15//17 16//17 19//17 20//17
f 16//18 14//18 18//18 19//18
f 21//19 24//19 26//19 23//19
f 23//20 26//20 25//20 22//20
f 22//21 25//21 24//21 21//21
f 29//22 28//22 27//22
f 30//23 29//23 27//23
f 28//24 30//24 27//24
f 24//25 25//25 30//25 28//25
f 25//26 26//26 29//26 30//26
f 26//27 24//27 28//27 29//27
f 31//28 34//28 36//28 33//28
f 33//29 36//29 35//29 32//29
f 32//30 35//30 34//30 31//30
f 39//31 38//31 37//31
f 40//32 39//32 37//32
f 38//33 40//33 37//33
f 34//34 35//34 40//34 38//34
f 35//35 36//35 39//35 40//35
f 36//36 34//36 38//36 39//36
f 41//37 44//37 46//37 43//37
f 43//38 46//38 45//38 42//38
f 42//39 45//39 44//39 41//39
f 49//40 48//40 47//40
f 50//41 49//41 47//41
f 48//42 50//42 47//42
f 44//43 45//43 50//43 48//43
f 45//44 46//44 49//44 50//44
f 46//45 44//45 48//45 49//45
f 51//46 54//46 56//46 53//46
f 53//47 56//47 55//47 52//47
f 52//48 55//48 54//48 51//48
f 59//49 58//49 57//49
f 60//50 59//50 57//50
f 58//51 60//51 57//51
f 54//52 55//52 60//52 58//52
f 55//53 56//53 59//53 60//53
f 56//54 54//54 58//54 59//54
f 61//55 64//55 66//55 63//55
f 63//56 66//56 65//56 62//56
f 62//57 65//57 64//57 61//57
f 69//58 68//58 67//58
f 70//59 69//59 67//59
f 68//60 70//60 67//60
f 64//61 65//61 70//61 68//61
f 65//62 66//62 69//62 70//62
f 66//63 64//63 68//63 69//63
f 71//37 74//37 76//37 73//37
f 73//38 76//38 75//38 72//38
f 72//39 75//39 74//39 71//39
f 79//40 78//40 77//40
f 80//41 79//41 77//41
f 78//42 80//42 77//42
f 74//43 75//43 80//43 78//43
f 75//44 76//44 79//44 80//44
f 76//45 74//45 78//45 79//45
f 81//64 84//64 86//64 83//64
f 83//65 86//65 85//65 82//65
f 82//66 85//66 84//66 81//66
f 89//67 88//67 87//67
f 90//68 89//68 87//68
f 88//69 90//69 87//69
f 84//70 85//70 90//70 88//70
f 85//71 86//71 89//71 90//71
f 86//72 84//72 88//72 89//72
