# Blender v2.83.4 OBJ File: ''
# www.blender.org
mtllib mattonella.mtl
o Cube.006_Cube.007
v 1.008767 0.100000 1.000000
v 1.008767 0.100000 -1.000000
v -0.991233 0.100000 -1.000000
v -0.991233 0.100000 1.000000
v -0.991233 0.100000 1.000000
v -0.991233 -0.100000 1.000000
v 1.008767 -0.100000 1.000000
v 1.008767 0.100000 1.000000
v -0.991233 0.100000 -1.000000
v -0.991233 -0.100000 -1.000000
v -0.991233 -0.100000 1.000000
v -0.991233 0.100000 1.000000
v -0.991233 -0.100000 1.000000
v -0.991233 -0.100000 -1.000000
v 1.008767 -0.100000 -1.000000
v 1.008767 -0.100000 1.000000
v 1.008767 0.100000 1.000000
v 1.008767 -0.100000 1.000000
v 1.008767 -0.100000 -1.000000
v 1.008767 0.100000 -1.000000
v 1.008767 0.100000 -1.000000
v 1.008767 -0.100000 -1.000000
v -0.991233 -0.100000 -1.000000
v -0.991233 0.100000 -1.000000
vt 0.000000 -0.000724
vt 0.997745 -0.000724
vt 0.997745 1.000000
vt 0.000000 1.000000
vt 0.870199 0.159529
vt 0.864738 0.166073
vt 0.859560 0.167097
vt 0.857967 0.159529
vt 0.857967 0.147297
vt 0.870199 0.147297
vt 0.870199 0.159529
vt 0.857967 0.159529
vt 0.882431 0.147297
vt 0.882431 0.159529
vt 0.870199 0.159529
vt 0.870199 0.147297
vt 0.821353 0.147297
vt 0.857967 0.147297
vt 0.857967 0.159529
vt 0.821353 0.159529
vt 0.821353 0.159529
vt 0.857967 0.159529
vt 0.853643 0.165504
vt 0.821808 0.168121
vn 0.0000 1.0000 0.0000
vn 0.0000 0.0000 1.0000
vn -1.0000 0.0000 0.0000
vn 0.0000 -1.0000 0.0000
vn 1.0000 0.0000 0.0000
vn 0.0000 0.0000 -1.0000
usemtl Material.003
s off
f 1/1/1 2/2/1 3/3/1
f 1/1/1 3/3/1 4/4/1
f 5/5/2 6/6/2 7/7/2
f 5/5/2 7/7/2 8/8/2
f 9/9/3 10/10/3 11/11/3
f 9/9/3 11/11/3 12/12/3
f 13/13/4 14/14/4 15/15/4
f 13/13/4 15/15/4 16/16/4
f 17/17/5 18/18/5 19/19/5
f 17/17/5 19/19/5 20/20/5
f 21/21/6 22/22/6 23/23/6
f 21/21/6 23/23/6 24/24/6
