# Blender v2.83.4 OBJ File: ''
# www.blender.org
mtllib grassMesh.mtl
o Plane.031
v 1.228675 -1.028693 2.107071
v 2.914201 -0.932683 1.034793
v 1.352909 0.932683 2.477975
v 3.038435 1.028693 1.405696
v -1.000000 -1.000000 0.000000
v 1.000000 -1.000000 0.000000
v -1.000000 1.000000 0.000000
v 1.000000 1.000000 0.000000
v 0.000000 -1.000000 1.000000
v 0.000000 -1.000000 -1.000000
v 0.000000 1.000000 1.000000
v 0.000000 1.000000 -1.000000
v -2.221441 -1.000000 1.178945
v -0.412391 -1.000000 0.326102
v -2.221441 1.000000 1.178945
v -0.412391 1.000000 0.326102
v -0.890494 -1.000000 1.657048
v -1.743337 -1.000000 -0.152001
v -0.890494 1.000000 1.657048
v -1.743337 1.000000 -0.152001
v 0.232987 -1.000000 0.171505
v 1.319093 -1.000000 1.850902
v 0.232987 1.000000 0.171505
v 1.319093 1.000000 1.850902
v -0.063658 -1.000000 1.554256
v 1.615738 -1.000000 0.468150
v -0.063658 1.000000 1.554256
v 1.615738 1.000000 0.468150
v 0.585732 -1.000000 -1.874418
v 1.671838 -1.000000 -0.195021
v 0.585732 1.000000 -1.874418
v 1.671838 1.000000 -0.195021
v 0.289087 -1.000000 -0.491667
v 1.968484 -1.000000 -1.577773
v 0.289087 1.000000 -0.491667
v 1.968484 1.000000 -1.577773
v -0.575267 -1.000000 -1.849936
v -1.588238 -1.000000 -0.125439
v -0.575267 1.000000 -1.849935
v -1.588238 1.000000 -0.125439
v -1.944001 -1.000000 -1.494173
v -0.219504 -1.000000 -0.481201
v -1.944000 1.000000 -1.494173
v -0.219504 1.000000 -0.481201
v -1.937908 -1.000000 -0.380546
v -3.188658 -1.000000 1.180103
v -1.937908 1.000000 -0.380546
v -3.188658 1.000000 1.180103
v -3.343607 -1.000000 -0.225597
v -1.782958 -1.000000 1.025153
v -3.343607 1.000000 -0.225597
v -1.782959 1.000000 1.025153
v 2.791818 -0.833486 -0.300739
v 1.541068 -0.833485 1.259911
v 2.791818 1.166515 -0.300739
v 1.541068 1.166515 1.259911
v 1.386118 -0.833485 -0.145789
v 2.946767 -0.833485 1.104961
v 1.386118 1.166515 -0.145789
v 2.946767 1.166515 1.104961
v -0.484610 -1.000000 1.674510
v -1.735360 -1.000000 3.235159
v -0.484610 1.000000 1.674510
v -1.735359 1.000000 3.235159
v -1.890310 -1.000000 1.829459
v -0.329660 -1.000000 3.080209
v -1.890310 1.000000 1.829460
v -0.329661 1.000000 3.080209
v 0.302747 -0.791093 1.445876
v 1.372124 -1.170283 3.092888
v 0.426981 1.170283 1.816780
v 1.496358 0.791093 3.463792
v -0.005327 -1.028693 2.805522
v 1.680199 -0.932683 1.733243
v 0.118906 0.932683 3.176425
v 1.804433 1.028693 2.104146
v -0.484610 -1.000000 -3.396592
v -1.735359 -1.000000 -1.835943
v -0.484610 1.000000 -3.396592
v -1.735359 1.000000 -1.835943
v -1.890309 -1.000000 -3.241642
v -0.329661 -1.000000 -1.990893
v -1.890310 1.000000 -3.241642
v -0.329660 1.000000 -1.990893
v 0.302747 -0.791093 -3.625225
v 1.372124 -1.170283 -1.978213
v 0.426981 1.170283 -3.254322
v 1.496358 0.791093 -1.607310
v -0.005328 -1.028693 -2.265580
v 1.680199 -0.932683 -3.337858
v 0.118906 0.932683 -1.894676
v 1.804433 1.028693 -2.966955
v -1.781719 -1.000000 1.674509
v -3.032469 -1.000000 3.235158
v -1.781719 1.000000 1.674509
v -3.032469 1.000000 3.235158
v -3.187418 -1.000000 1.829460
v -1.626769 -1.000000 3.080209
v -3.187419 1.000000 1.829459
v -1.626770 1.000000 3.080209
v -1.781719 -1.000000 -2.219172
v -3.032469 -1.000000 -0.658522
v -1.781719 1.000000 -2.219172
v -3.032469 1.000000 -0.658522
v -3.187418 -1.000000 -2.064222
v -1.626770 -1.000000 -0.813472
v -3.187419 1.000000 -2.064221
v -1.626770 1.000000 -0.813472
v 1.600642 -1.000000 -1.874418
v 2.686748 -1.000000 -0.195021
v 1.600642 1.000000 -1.874418
v 2.686748 1.000000 -0.195021
v 1.303997 -1.000000 -0.491667
v 2.983393 -1.000000 -1.577773
v 1.303997 1.000000 -0.491667
v 2.983394 1.000000 -1.577773
v 1.317657 -0.791093 -3.625225
v 2.387034 -1.170283 -1.978213
v 1.441891 1.170283 -3.254322
v 2.511268 0.791093 -1.607310
v 1.009582 -1.028693 -2.265579
v 2.695109 -0.932683 -3.337858
v 1.133816 0.932683 -1.894676
v 2.819343 1.028693 -2.966955
v 1.536750 -0.791093 0.747426
v 2.606126 -1.170283 2.394438
v 1.660984 1.170283 1.118330
v 2.730360 0.791093 2.765341
vt 0.000000 0.000000
vt 1.000000 0.000000
vt 1.000000 1.000000
vt 0.000000 1.000000
vt 0.000000 0.000000
vt 1.000000 0.000000
vt 1.000000 1.000000
vt 0.000000 1.000000
vt 0.000000 0.000000
vt 1.000000 0.000000
vt 1.000000 1.000000
vt 0.000000 1.000000
vt 0.000000 0.000000
vt 1.000000 0.000000
vt 1.000000 1.000000
vt 0.000000 1.000000
vt 0.000000 0.000000
vt 1.000000 0.000000
vt 1.000000 1.000000
vt 0.000000 1.000000
vt 0.000000 0.000000
vt 1.000000 0.000000
vt 1.000000 1.000000
vt 0.000000 1.000000
vt 0.000000 0.000000
vt 1.000000 0.000000
vt 1.000000 1.000000
vt 0.000000 1.000000
vt 0.000000 0.000000
vt 1.000000 0.000000
vt 1.000000 1.000000
vt 0.000000 1.000000
vt 0.000000 0.000000
vt 1.000000 0.000000
vt 1.000000 1.000000
vt 0.000000 1.000000
vt 0.000000 0.000000
vt 1.000000 0.000000
vt 1.000000 1.000000
vt 0.000000 1.000000
vt 0.000000 0.000000
vt 1.000000 0.000000
vt 1.000000 1.000000
vt 0.000000 1.000000
vt 0.000000 0.000000
vt 1.000000 0.000000
vt 1.000000 1.000000
vt 0.000000 1.000000
vt 0.000000 0.000000
vt 1.000000 0.000000
vt 1.000000 1.000000
vt 0.000000 1.000000
vt 0.000000 0.000000
vt 1.000000 0.000000
vt 1.000000 1.000000
vt 0.000000 1.000000
vt 0.000000 0.000000
vt 1.000000 0.000000
vt 1.000000 1.000000
vt 0.000000 1.000000
vt 0.000000 0.000000
vt 1.000000 0.000000
vt 1.000000 1.000000
vt 0.000000 1.000000
vt 0.000000 0.000000
vt 1.000000 0.000000
vt 1.000000 1.000000
vt 0.000000 1.000000
vt 0.000000 0.000000
vt 1.000000 0.000000
vt 1.000000 1.000000
vt 0.000000 1.000000
vt 0.000000 0.000000
vt 1.000000 0.000000
vt 1.000000 1.000000
vt 0.000000 1.000000
vt 0.000000 0.000000
vt 1.000000 0.000000
vt 1.000000 1.000000
vt 0.000000 1.000000
vt 0.000000 0.000000
vt 1.000000 0.000000
vt 1.000000 1.000000
vt 0.000000 1.000000
vt 0.000000 0.000000
vt 1.000000 0.000000
vt 1.000000 1.000000
vt 0.000000 1.000000
vt 0.000000 0.000000
vt 1.000000 0.000000
vt 1.000000 1.000000
vt 0.000000 1.000000
vt 0.000000 0.000000
vt 1.000000 0.000000
vt 1.000000 1.000000
vt 0.000000 1.000000
vt 0.000000 0.000000
vt 1.000000 0.000000
vt 1.000000 1.000000
vt 0.000000 1.000000
vt 0.000000 0.000000
vt 1.000000 0.000000
vt 1.000000 1.000000
vt 0.000000 1.000000
vt 0.000000 0.000000
vt 1.000000 0.000000
vt 1.000000 1.000000
vt 0.000000 1.000000
vt 0.000000 0.000000
vt 1.000000 0.000000
vt 1.000000 1.000000
vt 0.000000 1.000000
vt 0.000000 0.000000
vt 1.000000 0.000000
vt 1.000000 1.000000
vt 0.000000 1.000000
vt 0.000000 0.000000
vt 1.000000 0.000000
vt 1.000000 1.000000
vt 0.000000 1.000000
vt 0.000000 0.000000
vt 1.000000 0.000000
vt 1.000000 1.000000
vt 0.000000 1.000000
vt 0.000000 0.000000
vt 1.000000 0.000000
vt 1.000000 1.000000
vt 0.000000 1.000000
vn 0.5347 -0.1896 0.8235
vn 0.0000 0.0000 1.0000
vn 1.0000 -0.0000 -0.0000
vn 0.4264 -0.0000 0.9045
vn 0.9045 0.0000 -0.4264
vn -0.8397 -0.0000 0.5431
vn 0.5431 -0.0000 0.8397
vn -0.8622 0.0000 -0.5065
vn -0.5065 0.0000 0.8622
vn -0.7803 0.0000 -0.6254
vn -0.6254 -0.0000 0.7803
vn -0.8428 -0.0480 0.5361
usemtl None
s off
f 1/1/1 2/2/1 4/3/1 3/4/1
f 5/5/2 6/6/2 8/7/2 7/8/2
f 9/9/3 10/10/3 12/11/3 11/12/3
f 13/13/4 14/14/4 16/15/4 15/16/4
f 17/17/5 18/18/5 20/19/5 19/20/5
f 21/21/6 22/22/6 24/23/6 23/24/6
f 25/25/7 26/26/7 28/27/7 27/28/7
f 29/29/6 30/30/6 32/31/6 31/32/6
f 33/33/7 34/34/7 36/35/7 35/36/7
f 37/37/8 38/38/8 40/39/8 39/40/8
f 41/41/9 42/42/9 44/43/9 43/44/9
f 45/45/10 46/46/10 48/47/10 47/48/10
f 49/49/11 50/50/11 52/51/11 51/52/11
f 53/53/10 54/54/10 56/55/10 55/56/10
f 57/57/11 58/58/11 60/59/11 59/60/11
f 61/61/10 62/62/10 64/63/10 63/64/10
f 65/65/11 66/66/11 68/67/11 67/68/11
f 69/69/12 70/70/12 72/71/12 71/72/12
f 73/73/1 74/74/1 76/75/1 75/76/1
f 77/77/10 78/78/10 80/79/10 79/80/10
f 81/81/11 82/82/11 84/83/11 83/84/11
f 85/85/12 86/86/12 88/87/12 87/88/12
f 89/89/1 90/90/1 92/91/1 91/92/1
f 93/93/10 94/94/10 96/95/10 95/96/10
f 97/97/11 98/98/11 100/99/11 99/100/11
f 101/101/10 102/102/10 104/103/10 103/104/10
f 105/105/11 106/106/11 108/107/11 107/108/11
f 109/109/6 110/110/6 112/111/6 111/112/6
f 113/113/7 114/114/7 116/115/7 115/116/7
f 117/117/12 118/118/12 120/119/12 119/120/12
f 121/121/1 122/122/1 124/123/1 123/124/1
f 125/125/12 126/126/12 128/127/12 127/128/12
